<?xml version="1.0" standalone="no"?>
<!DOCTYPE svg PUBLIC "-//W3C//DTD SVG 20010904//EN"
 "http://www.w3.org/TR/2001/REC-SVG-20010904/DTD/svg10.dtd">
<svg version="1.0" xmlns="http://www.w3.org/2000/svg"
 width="351.000000pt" height="351.000000pt" viewBox="0 0 351.000000 351.000000"
 preserveAspectRatio="xMidYMid meet">
<metadata>
Created by potrace 1.11, written by Peter Selinger 2001-2013
</metadata>
<g transform="translate(0.000000,351.000000) scale(0.100000,-0.100000)"
fill="#000000" stroke="none">
<path d="M2670 3160 c0 -138 2 -250 5 -250 5 0 323 124 360 141 11 5 82 33
159 63 l138 54 -58 22 c-55 21 -249 91 -496 181 l-108 38 0 -249z"/>
<path d="M331 2850 c-4 -3 -7 -75 -7 -160 l1 -155 1170 -1 c644 0 1175 1 1180
3 7 2 12 252 6 313 -1 4 -277 5 -316 1 -6 -1 -16 -16 -23 -35 -25 -68 -95
-116 -170 -116 -60 0 -143 67 -156 127 l-6 28 -158 -2 c-86 -1 -165 -2 -174
-2 -10 -1 -19 -13 -23 -32 -15 -67 -111 -127 -184 -116 -65 11 -127 63 -138
119 -3 16 -11 28 -17 29 -6 0 -84 2 -173 2 l-161 2 -11 -37 c-7 -22 -28 -51
-52 -72 -88 -74 -208 -52 -259 49 -14 28 -26 52 -27 54 -4 6 -294 7 -302 1z"/>
<path d="M330 2470 c-8 -5 -6 -1362 2 -1395 3 -11 9 -40 13 -64 30 -178 144
-404 279 -550 73 -78 206 -195 220 -192 3 0 30 -15 60 -34 241 -154 563 -201
901 -131 50 10 157 51 232 89 207 102 424 318 527 522 13 28 25 52 25 55 0 3
14 45 31 94 29 87 50 176 56 246 7 69 7 1351 0 1357 -8 8 -2334 11 -2346 3z
m2186 -163 c8 -8 7 -1108 -1 -1182 -6 -53 -26 -139 -53 -230 -30 -97 -121
-242 -217 -344 l-63 -66 -343 693 c-189 380 -346 692 -349 692 -3 0 -157 -304
-341 -676 -183 -372 -338 -678 -343 -681 -10 -7 -81 70 -142 154 -88 121 -150
290 -170 458 -9 84 -13 1179 -4 1185 11 7 2019 5 2026 -3z m-728 -1297 c161
-324 292 -594 292 -599 0 -18 -137 -92 -223 -122 -46 -16 -116 -35 -156 -42
-82 -16 -274 -20 -341 -7 -25 4 -62 11 -82 14 -112 17 -368 144 -368 182 0 11
574 1164 580 1164 3 0 137 -265 298 -590z"/>
</g>
</svg>
